<svg width="512" height="512" xmlns="http://www.w3.org/2000/svg">

 <g>
  <title>background</title>
  <rect fill="none" id="canvas_background" height="402" width="582" y="-1" x="-1"/>
 </g>
 <g>
  <title>Layer 1</title>
  <path fill="#ffffff" id="svg_2" d="m206.2,144.8l0,-21.5c3.8,0.9 7.6,2.6 11.5,4.9c1.1,0.7 2.2,1 3.4,1c3.5,0 6.3,-2.7 6.3,-6.2c0,-2.7 -1.6,-4.3 -3.4,-5.4c-5.2,-3.2 -10.7,-5.4 -17.3,-6.2l0,-2.5c0,-2.7 -2.1,-4.8 -4.8,-4.8c-2.7,0 -4.9,2.1 -4.9,4.8l0,2.3c-4.4,0.4 -8.4,1.4 -11.7,3.1c-4.2,2.1 -7.4,5.1 -9.4,8.8c-1.5,2.8 -2.3,6 -2.3,9.5c0,5.1 1.3,9.2 3.8,12.5c3.8,4.8 10.4,8 20.1,10.6l0,22c-6.2,-1.1 -11.3,-3.7 -16.6,-7.5c-1,-0.8 -2.4,-1.2 -3.7,-1.2c-3.5,0 -6.1,2.7 -6.1,6.1c0,2.3 1.1,4.1 3,5.4c6.8,4.8 14.5,7.8 22.9,8.7l0,6.9c0,2.7 2.2,4.8 4.9,4.8c2.7,0 4.8,-2.1 4.8,-4.8l0,-6.7c14.2,-1.3 23.8,-9.5 23.8,-21.8c0,-3.7 -0.7,-6.9 -2.1,-9.7c-3.3,-6 -10.4,-10.2 -22.2,-13.1zm-8.8,-2.3c-1.7,-0.6 -3.2,-1.1 -4.5,-1.7c0,0 0,0 0,0c-4.9,-2.3 -6.3,-4.9 -6.3,-8.7c0,-4.9 3.6,-8.7 10.7,-9.4l0,19.8l0.1,0zm8.8,35.9l0,-20.4c0.2,0.1 0.4,0.1 0.5,0.2c8.2,2.6 10.5,5.6 10.5,10.5c0.1,5.3 -3.8,8.9 -11,9.7z" class="st0"/>
  <path fill="#ffffff" id="svg_3" d="m441.1,218.850585c2.7,0 5.2,-1.6 6.3,-4s0.8,-5.3 -0.9,-7.4l-50.2,-61.6l-42.9,-52.6c-1.3,-1.6 -3.3,-2.6 -5.4,-2.6c0,0 0,0 0,0c-2.1,0 -4.1,0.9 -5.4,2.6l-28.2,34.6c-11.2,-53.7 -59,-93.6 -115.3,-93.6c-65,0 -117.8,52.8 -117.8,117.8c0,65 52.9,117.8 117.8,117.8c32.6,0 63,-13.2 85,-36.3c-7,20.9 -19.8,39.5 -37.4,53.6c-24.1,19.4 -54.3,28.2 -85,24.8c-30.7,-3.4 -58.3,-18.5 -77.7,-42.6c-2.6,-3.2 -5,-6.5 -7.1,-9.9c-1.9,-3 -5.8,-4.1 -9,-2.5s-4.7,5.3 -3.4,8.7c6.6,17.8 16,34.4 28,49.3c13.8,17.2 30.4,31.5 49.3,42.4c17.4,10 36.2,17 56,20.7c10.7,2 21.6,3 32.5,3c4.6,0 9.1,-0.2 13.7,-0.5c19.4,-1.5 38.2,-6.2 56,-13.9c14.5,-6.3 28.2,-14.5 40.7,-24.5c1.8,-1.4 3.6,-2.9 5.5,-4.6c28.2,-24.6 47.6,-56.9 56,-93.4c1.9,-8.3 3.2,-16.8 3.9,-25.3l35,0zm-242.1,0c-36.8,0 -66.8,-30 -66.8,-66.8s30,-66.8 66.8,-66.8s66.8,30 66.8,66.8s-30,66.8 -66.8,66.8zm0,37c-57.2,0 -103.8,-46.6 -103.8,-103.8c0,-57.2 46.6,-103.8 103.8,-103.8c53.7,0 98.5,41.2 103.4,94.3l-15,18.3l0,0l-10.6,13c2,-6.9 3,-14.3 3,-21.8c0,-44.6 -36.3,-80.8 -80.8,-80.8s-80.8,36.3 -80.8,80.8s36.3,80.8 80.8,80.8c18.8,0 36.1,-6.5 49.9,-17.3c1.3,2.1 3.5,3.3 5.9,3.3l23.6,0c-19.6,23.4 -48.5,37 -79.4,37zm200.5,-51c-3.7,0 -6.8,2.9 -7,6.7c-0.4,9.9 -1.8,19.8 -4,29.5c-7.7,33.6 -25.6,63.3 -51.6,86c-1.8,1.6 -3.5,3 -5.1,4.3c-11.5,9.2 -24.1,16.8 -37.5,22.6c-16.4,7.1 -33.7,11.4 -51.6,12.7c-14.2,1.1 -28.5,0.3 -42.5,-2.3c-18.3,-3.4 -35.6,-9.8 -51.6,-19c-17.4,-10.1 -32.7,-23.2 -45.4,-39c-0.3,-0.4 -0.7,-0.8 -1,-1.3c17.1,11.4 36.8,18.7 57.9,21c34.5,3.8 68.3,-6.1 95.3,-27.8c26.5,-21.3 43.4,-51.6 47.6,-85.4c0.2,-2 -0.4,-4 -1.7,-5.5c-1.3,-1.5 -3.2,-2.4 -5.2,-2.4l-3.8,0l-22.7,0l78.4,-96.1l37.5,46l40.9,50.2l-26.9,0l0,-0.2z" class="st0"/>
  <path fill="#ffffff" id="svg_4" d="m195.5,390.6c-16.5,-3.1 -32.4,-8.3 -47.3,-15.4c-2.2,-1 -4.7,-0.9 -6.8,0.4c-2,1.3 -3.3,3.5 -3.3,5.9l0,88.6c0,3.9 3.1,7 7,7l53.9,0c3.9,0 7,-3.1 7,-7l0,-71.8c0,-3.4 -2.5,-6.4 -5.9,-6.9c-1.6,-0.3 -3.1,-0.5 -4.6,-0.8zm-3.5,72.5l-39.8,0l0,-70.8c12.8,5.3 26.1,9.3 39.8,11.9l0,58.9z" class="st0"/>
  <path fill="#ffffff" id="svg_5" d="m294.7,382.4c-16.1,5.9 -32.9,9.5 -50,10.8c-0.6,0 -1.2,0.1 -1.8,0.1c-3.7,0.2 -6.6,3.3 -6.6,7l0,69.7c0,3.9 3.1,7 7,7l53.8,0c3.9,0 7,-3.1 7,-7l0,-81c0,-2.3 -1.1,-4.4 -3,-5.7c-1.8,-1.4 -4.2,-1.7 -6.4,-0.9zm-4.6,80.7l-39.8,0l0,-56.3c13.5,-1.3 26.9,-4 39.8,-8.1l0,64.4z" class="st0"/>
  <path fill="#ffffff" id="svg_6" d="m397.3,303.2c-3,-0.9 -6.2,0.3 -7.9,3c-9.7,15.3 -21.6,29.1 -35.4,41.1c-2.2,1.9 -4.1,3.5 -5.9,4.9c-3.5,2.8 -7,5.4 -10.6,7.9c-1.9,1.3 -3,3.5 -3,5.7l0,104.1c0,3.9 3.1,7 7,7l53.8,0c3.9,0 7,-3.1 7,-7l0,-160c0,-3.1 -2,-5.8 -5,-6.7zm-9,159.9l-39.8,0l0,-93.5c2.8,-2 5.6,-4.2 8.3,-6.3c1.9,-1.5 4,-3.3 6.3,-5.3c9.2,-8 17.6,-16.8 25.1,-26.2l0,131.3l0.1,0z" class="st0"/>
 </g>
</svg>